<mxfile host="app.diagrams.net" modified="2024-07-11T16:31:20.108Z" agent="Mozilla/5.0 (Macintosh; Intel Mac OS X 10_15_7) AppleWebKit/537.36 (KHTML, like Gecko) Chrome/126.0.0.0 Safari/537.36 Edg/126.0.0.0" etag="sC96gqbegRt4vJBSr5RK" version="24.6.4" type="device">
  <diagram name="PÃ¡gina-1" id="ZmpaimCvgsItLKxl_rqc">
    <mxGraphModel dx="1783" dy="1000" grid="1" gridSize="10" guides="1" tooltips="1" connect="1" arrows="1" fold="1" page="1" pageScale="1" pageWidth="850" pageHeight="1100" math="0" shadow="0">
      <root>
        <mxCell id="0" />
        <mxCell id="1" parent="0" />
        <mxCell id="ALDifmEUvVNFz50BFPPx-1" value="&lt;p style=&quot;line-height: 110%;&quot;&gt;&lt;font style=&quot;font-size: 14px;&quot; data-font-src=&quot;https://fonts.googleapis.com/css?family=Roboto+Mono&quot; face=&quot;Roboto Mono&quot;&gt;Training&amp;nbsp;&lt;/font&gt;&lt;span style=&quot;font-family: &amp;quot;Roboto Mono&amp;quot;; font-size: 14px; background-color: initial;&quot;&gt;infrastructure&lt;/span&gt;&lt;/p&gt;" style="rounded=0;whiteSpace=wrap;html=1;align=left;verticalAlign=top;spacing=0;spacingLeft=10;" vertex="1" parent="1">
          <mxGeometry x="40" y="40" width="510" height="140" as="geometry" />
        </mxCell>
        <mxCell id="ALDifmEUvVNFz50BFPPx-2" value="&lt;font data-font-src=&quot;https://fonts.googleapis.com/css?family=Roboto+Mono&quot; face=&quot;Roboto Mono&quot;&gt;minio&lt;/font&gt;" style="rounded=0;whiteSpace=wrap;html=1;" vertex="1" parent="1">
          <mxGeometry x="60" y="90" width="120" height="60" as="geometry" />
        </mxCell>
        <mxCell id="ALDifmEUvVNFz50BFPPx-3" value="&lt;font data-font-src=&quot;https://fonts.googleapis.com/css?family=Roboto+Mono&quot; face=&quot;Roboto Mono&quot;&gt;PostgreSQL&lt;/font&gt;" style="rounded=0;whiteSpace=wrap;html=1;" vertex="1" parent="1">
          <mxGeometry x="410" y="90" width="120" height="60" as="geometry" />
        </mxCell>
        <mxCell id="ALDifmEUvVNFz50BFPPx-5" style="edgeStyle=orthogonalEdgeStyle;rounded=0;orthogonalLoop=1;jettySize=auto;html=1;exitX=1;exitY=0.5;exitDx=0;exitDy=0;entryX=0;entryY=0.5;entryDx=0;entryDy=0;startArrow=classic;startFill=1;" edge="1" parent="1" source="ALDifmEUvVNFz50BFPPx-4" target="ALDifmEUvVNFz50BFPPx-3">
          <mxGeometry relative="1" as="geometry" />
        </mxCell>
        <mxCell id="ALDifmEUvVNFz50BFPPx-6" style="edgeStyle=orthogonalEdgeStyle;rounded=0;orthogonalLoop=1;jettySize=auto;html=1;exitX=0;exitY=0.5;exitDx=0;exitDy=0;entryX=1;entryY=0.5;entryDx=0;entryDy=0;startArrow=classic;startFill=1;" edge="1" parent="1" source="ALDifmEUvVNFz50BFPPx-4" target="ALDifmEUvVNFz50BFPPx-2">
          <mxGeometry relative="1" as="geometry" />
        </mxCell>
        <mxCell id="ALDifmEUvVNFz50BFPPx-4" value="&lt;font data-font-src=&quot;https://fonts.googleapis.com/css?family=Roboto+Mono&quot; face=&quot;Roboto Mono&quot;&gt;MLflow&lt;/font&gt;" style="rounded=0;whiteSpace=wrap;html=1;" vertex="1" parent="1">
          <mxGeometry x="235" y="90" width="120" height="60" as="geometry" />
        </mxCell>
        <mxCell id="ALDifmEUvVNFz50BFPPx-7" value="&lt;p style=&quot;line-height: 110%;&quot;&gt;&lt;font style=&quot;font-size: 14px;&quot; data-font-src=&quot;https://fonts.googleapis.com/css?family=Roboto+Mono&quot; face=&quot;Roboto Mono&quot;&gt;Serving infrastructure&lt;/font&gt;&lt;/p&gt;" style="rounded=0;whiteSpace=wrap;html=1;align=left;verticalAlign=top;spacing=0;spacingLeft=10;" vertex="1" parent="1">
          <mxGeometry x="320" y="220" width="500" height="230" as="geometry" />
        </mxCell>
        <mxCell id="ALDifmEUvVNFz50BFPPx-9" style="edgeStyle=orthogonalEdgeStyle;rounded=0;orthogonalLoop=1;jettySize=auto;html=1;entryX=0.5;entryY=1;entryDx=0;entryDy=0;startArrow=classic;startFill=1;endArrow=none;endFill=0;" edge="1" parent="1" source="ALDifmEUvVNFz50BFPPx-8" target="ALDifmEUvVNFz50BFPPx-4">
          <mxGeometry relative="1" as="geometry">
            <Array as="points">
              <mxPoint x="730" y="190" />
              <mxPoint x="295" y="190" />
            </Array>
          </mxGeometry>
        </mxCell>
        <mxCell id="ALDifmEUvVNFz50BFPPx-8" value="&lt;font data-font-src=&quot;https://fonts.googleapis.com/css?family=Roboto+Mono&quot; face=&quot;Roboto Mono&quot;&gt;Prediction service&lt;/font&gt;" style="rounded=0;whiteSpace=wrap;html=1;" vertex="1" parent="1">
          <mxGeometry x="670" y="270" width="120" height="60" as="geometry" />
        </mxCell>
        <mxCell id="ALDifmEUvVNFz50BFPPx-11" style="edgeStyle=orthogonalEdgeStyle;rounded=0;orthogonalLoop=1;jettySize=auto;html=1;entryX=0.5;entryY=1;entryDx=0;entryDy=0;startArrow=classic;startFill=1;" edge="1" parent="1" source="ALDifmEUvVNFz50BFPPx-10" target="ALDifmEUvVNFz50BFPPx-8">
          <mxGeometry relative="1" as="geometry" />
        </mxCell>
        <mxCell id="ALDifmEUvVNFz50BFPPx-13" value="" style="edgeStyle=orthogonalEdgeStyle;rounded=0;orthogonalLoop=1;jettySize=auto;html=1;startArrow=classic;startFill=1;" edge="1" parent="1" source="ALDifmEUvVNFz50BFPPx-10" target="ALDifmEUvVNFz50BFPPx-12">
          <mxGeometry relative="1" as="geometry" />
        </mxCell>
        <mxCell id="ALDifmEUvVNFz50BFPPx-10" value="&lt;font data-font-src=&quot;https://fonts.googleapis.com/css?family=Roboto+Mono&quot; face=&quot;Roboto Mono&quot;&gt;Cycle Map /&lt;/font&gt;&lt;div&gt;&lt;font data-font-src=&quot;https://fonts.googleapis.com/css?family=Roboto+Mono&quot; face=&quot;Roboto Mono&quot;&gt;Frontend&lt;/font&gt;&lt;/div&gt;" style="rounded=0;whiteSpace=wrap;html=1;" vertex="1" parent="1">
          <mxGeometry x="670" y="370" width="120" height="60" as="geometry" />
        </mxCell>
        <mxCell id="ALDifmEUvVNFz50BFPPx-12" value="User" style="shape=umlActor;verticalLabelPosition=bottom;verticalAlign=top;html=1;outlineConnect=0;" vertex="1" parent="1">
          <mxGeometry x="715" y="500" width="30" height="60" as="geometry" />
        </mxCell>
        <mxCell id="ALDifmEUvVNFz50BFPPx-22" style="edgeStyle=orthogonalEdgeStyle;rounded=0;orthogonalLoop=1;jettySize=auto;html=1;exitX=0;exitY=0.5;exitDx=0;exitDy=0;entryX=1;entryY=0.5;entryDx=0;entryDy=0;dashed=1;dashPattern=1 1;" edge="1" parent="1" source="ALDifmEUvVNFz50BFPPx-14" target="ALDifmEUvVNFz50BFPPx-16">
          <mxGeometry relative="1" as="geometry" />
        </mxCell>
        <mxCell id="ALDifmEUvVNFz50BFPPx-14" value="&lt;font data-font-src=&quot;https://fonts.googleapis.com/css?family=Roboto+Mono&quot; face=&quot;Roboto Mono&quot;&gt;Logstash&lt;/font&gt;" style="rounded=0;whiteSpace=wrap;html=1;" vertex="1" parent="1">
          <mxGeometry x="520" y="270" width="120" height="60" as="geometry" />
        </mxCell>
        <mxCell id="ALDifmEUvVNFz50BFPPx-15" value="&lt;font data-font-src=&quot;https://fonts.googleapis.com/css?family=Roboto+Mono&quot; face=&quot;Roboto Mono&quot;&gt;Kibana&lt;/font&gt;" style="rounded=0;whiteSpace=wrap;html=1;" vertex="1" parent="1">
          <mxGeometry x="360" y="370" width="120" height="60" as="geometry" />
        </mxCell>
        <mxCell id="ALDifmEUvVNFz50BFPPx-21" style="edgeStyle=orthogonalEdgeStyle;rounded=0;orthogonalLoop=1;jettySize=auto;html=1;entryX=0.5;entryY=0;entryDx=0;entryDy=0;" edge="1" parent="1" source="ALDifmEUvVNFz50BFPPx-16" target="ALDifmEUvVNFz50BFPPx-15">
          <mxGeometry relative="1" as="geometry" />
        </mxCell>
        <mxCell id="ALDifmEUvVNFz50BFPPx-16" value="&lt;font data-font-src=&quot;https://fonts.googleapis.com/css?family=Roboto+Mono&quot; face=&quot;Roboto Mono&quot;&gt;Elastic&lt;/font&gt;" style="rounded=0;whiteSpace=wrap;html=1;" vertex="1" parent="1">
          <mxGeometry x="360" y="270" width="120" height="60" as="geometry" />
        </mxCell>
        <mxCell id="ALDifmEUvVNFz50BFPPx-23" style="edgeStyle=orthogonalEdgeStyle;rounded=0;orthogonalLoop=1;jettySize=auto;html=1;entryX=0.987;entryY=0.494;entryDx=0;entryDy=0;entryPerimeter=0;dashed=1;dashPattern=1 1;" edge="1" parent="1" source="ALDifmEUvVNFz50BFPPx-8" target="ALDifmEUvVNFz50BFPPx-14">
          <mxGeometry relative="1" as="geometry" />
        </mxCell>
        <mxCell id="ALDifmEUvVNFz50BFPPx-24" value="MLOps&lt;div&gt;engineer&lt;/div&gt;" style="shape=umlActor;verticalLabelPosition=bottom;verticalAlign=top;html=1;outlineConnect=0;" vertex="1" parent="1">
          <mxGeometry x="405" y="490" width="30" height="60" as="geometry" />
        </mxCell>
        <mxCell id="ALDifmEUvVNFz50BFPPx-25" style="edgeStyle=orthogonalEdgeStyle;rounded=0;orthogonalLoop=1;jettySize=auto;html=1;exitX=0.5;exitY=1;exitDx=0;exitDy=0;entryX=0.5;entryY=0;entryDx=0;entryDy=0;entryPerimeter=0;" edge="1" parent="1" source="ALDifmEUvVNFz50BFPPx-15" target="ALDifmEUvVNFz50BFPPx-24">
          <mxGeometry relative="1" as="geometry" />
        </mxCell>
        <mxCell id="ALDifmEUvVNFz50BFPPx-27" style="edgeStyle=orthogonalEdgeStyle;rounded=0;orthogonalLoop=1;jettySize=auto;html=1;entryX=0.5;entryY=0;entryDx=0;entryDy=0;startArrow=classic;startFill=1;endArrow=none;endFill=0;" edge="1" parent="1" source="ALDifmEUvVNFz50BFPPx-26" target="ALDifmEUvVNFz50BFPPx-4">
          <mxGeometry relative="1" as="geometry">
            <Array as="points">
              <mxPoint x="675" y="70" />
              <mxPoint x="295" y="70" />
            </Array>
          </mxGeometry>
        </mxCell>
        <mxCell id="ALDifmEUvVNFz50BFPPx-26" value="ML Engineer" style="shape=umlActor;verticalLabelPosition=bottom;verticalAlign=top;html=1;outlineConnect=0;" vertex="1" parent="1">
          <mxGeometry x="670" y="50" width="30" height="60" as="geometry" />
        </mxCell>
        <mxCell id="ALDifmEUvVNFz50BFPPx-30" value="&lt;p style=&quot;line-height: 110%;&quot;&gt;&lt;font face=&quot;Roboto Mono&quot;&gt;&lt;span style=&quot;font-size: 14px;&quot;&gt;GitHub Actions / CICD&lt;/span&gt;&lt;/font&gt;&lt;/p&gt;" style="rounded=0;whiteSpace=wrap;html=1;align=left;verticalAlign=top;spacing=0;spacingLeft=10;" vertex="1" parent="1">
          <mxGeometry x="40" y="220" width="230" height="160" as="geometry" />
        </mxCell>
        <mxCell id="ALDifmEUvVNFz50BFPPx-35" style="edgeStyle=orthogonalEdgeStyle;rounded=0;orthogonalLoop=1;jettySize=auto;html=1;entryX=0.25;entryY=1;entryDx=0;entryDy=0;" edge="1" parent="1" source="ALDifmEUvVNFz50BFPPx-31" target="ALDifmEUvVNFz50BFPPx-4">
          <mxGeometry relative="1" as="geometry">
            <Array as="points">
              <mxPoint x="290" y="288" />
              <mxPoint x="290" y="210" />
              <mxPoint x="265" y="210" />
            </Array>
          </mxGeometry>
        </mxCell>
        <mxCell id="ALDifmEUvVNFz50BFPPx-31" value="Training container" style="rounded=1;whiteSpace=wrap;html=1;fontFamily=Roboto Mono;fontSource=https%3A%2F%2Ffonts.googleapis.com%2Fcss%3Ffamily%3DRoboto%2BMono;" vertex="1" parent="1">
          <mxGeometry x="60" y="270" width="190" height="35" as="geometry" />
        </mxCell>
        <mxCell id="ALDifmEUvVNFz50BFPPx-34" style="edgeStyle=orthogonalEdgeStyle;rounded=0;orthogonalLoop=1;jettySize=auto;html=1;entryX=0.5;entryY=1;entryDx=0;entryDy=0;" edge="1" parent="1" source="ALDifmEUvVNFz50BFPPx-33" target="ALDifmEUvVNFz50BFPPx-31">
          <mxGeometry relative="1" as="geometry" />
        </mxCell>
        <mxCell id="ALDifmEUvVNFz50BFPPx-33" value="Tests" style="rounded=1;whiteSpace=wrap;html=1;fontFamily=Roboto Mono;fontSource=https%3A%2F%2Ffonts.googleapis.com%2Fcss%3Ffamily%3DRoboto%2BMono;" vertex="1" parent="1">
          <mxGeometry x="60" y="330" width="190" height="35" as="geometry" />
        </mxCell>
      </root>
    </mxGraphModel>
  </diagram>
</mxfile>
